<svg xmlns="http://www.w3.org/2000/svg" width="720" height="720" viewBox="0 0 720 720"><circle cx="360" cy="360" r="352" fill="#ffffff"/><g transform="translate(123,123) scale(0.658)" fill="#0a0a0a">
<path fill="#0a0a0a" opacity="1.000000" stroke="none" 
	d="
M158.000000,721.000000 
	C106.994736,721.000000 55.989456,721.010620 4.984293,720.939819 
	C3.692254,720.938049 1.894504,722.060730 1.255595,719.474487 
	C4.039150,717.793030 4.107808,715.265808 4.685361,713.083923 
	C8.348150,699.246765 12.088737,685.428284 15.556472,671.541931 
	C22.746925,642.748230 31.690456,614.526733 42.262028,586.793457 
	C44.541374,580.813782 46.787167,574.815186 47.267395,568.105591 
	C47.721245,561.764648 49.476337,555.242310 54.956097,550.738098 
	C66.449379,541.290894 78.716576,533.044739 92.059158,526.407166 
	C104.473915,520.231201 117.195686,514.933228 130.836716,512.098267 
	C141.287018,509.926392 150.116119,503.976990 159.658554,499.691681 
	C173.318161,493.557495 188.108536,490.284149 201.367874,483.110565 
	C204.426102,481.455933 208.013412,478.913605 211.000534,479.331238 
	C221.365265,480.780457 227.831635,474.806610 234.847305,469.025330 
	C238.958664,465.637390 244.330978,464.256622 249.220352,462.148865 
	C253.937073,460.115540 256.893829,457.294373 257.158508,451.390900 
	C257.521088,443.305145 257.225098,435.056061 259.881805,427.164581 
	C260.861359,424.254944 259.089600,422.928741 256.366425,422.375336 
	C231.103409,417.241089 215.700378,401.290710 208.589096,377.261566 
	C204.187164,362.387329 200.878998,347.074493 210.430008,332.546356 
	C211.628693,330.723022 211.145065,329.111267 209.755783,327.580750 
	C205.773285,323.193451 203.198883,317.944427 200.956970,312.556396 
	C194.681625,297.474823 187.742279,282.704681 180.229706,268.208832 
	C176.069000,260.180634 173.670578,251.869476 174.680847,242.747574 
	C175.398895,236.264114 176.746964,229.954636 179.129303,223.853851 
	C188.234406,200.537140 198.018707,177.576080 212.955475,157.216644 
	C214.440323,155.192734 215.851151,153.017792 215.978043,150.074127 
	C213.600143,150.666519 212.121277,151.752762 210.772110,152.969894 
	C207.807205,155.644608 204.962753,158.453583 201.979019,161.106400 
	C200.539093,162.386612 198.727310,163.114441 196.954926,161.878845 
	C195.282013,160.712555 195.848694,158.931076 196.267929,157.296082 
	C196.813843,155.167175 197.909286,153.319946 199.062698,151.470306 
	C204.147064,143.317017 211.617661,137.263901 218.266632,129.808746 
	C216.508133,130.433151 215.281281,131.151138 213.999573,131.268097 
	C210.840881,131.556351 206.809326,135.647415 204.731888,131.386612 
	C202.548172,126.907784 207.793579,125.624397 210.605148,123.638290 
	C216.262512,119.641899 222.582306,116.885109 227.937317,112.096970 
	C234.262817,106.441040 241.687057,101.284470 251.505692,105.017494 
	C255.256714,106.443634 256.361176,103.271164 256.745453,100.213974 
	C259.093445,81.535294 269.091461,67.114059 282.212891,54.443371 
	C284.130371,52.591785 286.237122,50.918495 288.761871,49.930935 
	C290.965424,49.069008 293.043518,49.244244 294.669067,51.162785 
	C296.214874,52.987225 295.872925,54.846050 294.569336,56.644997 
	C292.910095,58.934738 291.195343,61.185570 289.585297,63.509151 
	C288.645966,64.864792 286.973206,65.985634 287.572723,68.395836 
	C291.228516,66.909660 293.542480,64.209961 296.173950,61.996304 
	C300.405334,58.436764 304.896545,55.298275 309.874237,52.897011 
	C312.124481,51.811466 314.995148,50.363247 316.727509,52.742947 
	C318.593414,55.306068 316.471069,57.727100 314.512756,59.681026 
	C312.625519,61.564034 310.589142,63.320591 308.875397,65.349823 
	C304.665924,70.334244 299.846924,74.934525 297.528381,81.560844 
	C300.500610,81.989456 301.787659,79.922569 303.423126,78.727249 
	C317.246704,68.624046 332.433807,61.714302 349.494385,59.535465 
	C363.512695,57.745163 377.609680,56.576000 391.635956,54.841911 
	C406.039124,53.061245 419.755219,55.247952 433.233154,60.458057 
	C445.692017,65.274231 457.699738,70.998405 469.608124,76.990837 
	C476.187988,80.301895 482.196198,84.378624 487.985657,88.950539 
	C506.908722,103.894089 527.434204,116.237617 549.757935,125.423264 
	C562.569397,130.694839 575.502319,135.434326 589.883423,133.760193 
	C597.549255,132.867798 604.819824,130.449783 612.341614,129.077789 
	C614.483459,128.687119 616.842285,128.052994 617.951355,130.728516 
	C618.956543,133.153137 618.158752,135.274200 616.149475,136.964752 
	C613.834351,138.912582 611.188599,140.282440 608.516724,141.665176 
	C597.272827,147.484192 584.157898,149.524887 574.411011,158.962952 
	C574.311584,159.659088 575.033630,160.455170 575.775208,161.058655 
	C585.129211,168.671173 592.019165,178.751099 601.053772,186.608063 
	C612.187317,196.290253 619.130920,208.158340 622.381470,222.397949 
	C623.047729,225.316544 623.833557,228.218277 624.752502,231.067062 
	C630.379456,248.511673 634.829651,266.245026 637.985474,284.302338 
	C638.271118,285.936981 638.694580,287.571472 637.632446,289.169250 
	C633.982422,290.158630 632.151978,287.716614 630.352539,285.279663 
	C624.031006,276.718475 616.334839,269.430115 608.350891,260.528290 
	C607.568726,268.002899 607.383118,274.288086 604.484192,279.935059 
	C604.225220,280.439545 604.385559,281.295380 604.609375,281.890991 
	C607.593811,289.832184 604.601990,296.918854 601.392944,303.912811 
	C594.707642,318.482635 581.764465,326.621490 569.065063,334.945892 
	C566.889893,336.371674 564.194214,338.028290 561.780762,335.663849 
	C559.457886,333.388092 561.666199,331.005951 562.497131,328.780579 
	C564.255798,324.070312 567.430176,319.902893 568.457825,313.830261 
	C561.394470,318.572571 556.982971,324.764832 551.349304,329.602936 
	C547.702820,332.734497 546.898376,336.658356 547.759216,341.348785 
	C548.940430,347.784424 548.690674,354.203735 546.924377,360.624817 
	C542.170837,377.905792 531.785400,391.558502 519.492615,404.028229 
	C516.804077,406.755432 513.245667,409.134399 512.609009,413.012756 
	C511.527985,419.597900 507.744385,424.919281 505.404144,430.892700 
	C502.058563,439.432159 496.308685,445.984009 488.893646,451.090027 
	C479.984955,457.224609 470.818146,462.985199 461.930878,469.149628 
	C457.874329,471.963348 458.015594,473.897491 462.572510,475.701477 
	C469.364990,478.390472 476.294373,480.921112 483.378387,482.643829 
	C495.007874,485.471893 506.622528,488.450195 518.517517,490.121185 
	C529.614929,491.680145 539.906921,496.307587 550.762695,498.900635 
	C566.735352,502.715942 582.825500,505.933685 597.523987,514.236084 
	C615.572510,524.430725 628.040833,538.278381 633.525269,558.601990 
	C637.042847,571.637085 638.262756,585.186218 642.630920,597.959229 
	C648.069092,613.861267 654.199707,629.526184 659.660400,645.420959 
	C668.115051,670.030640 672.597473,695.633423 678.000000,721.000000 
	C619.645752,721.000000 561.291565,721.000000 502.685364,720.832642 
	C504.400665,716.311157 501.969421,711.223206 504.660645,706.930359 
	C504.793610,706.718262 503.548981,705.418884 502.766602,704.891907 
	C496.140411,700.429443 489.653137,695.758423 482.453003,692.189392 
	C476.503571,689.240295 469.732300,687.043518 465.050720,682.667297 
	C458.946350,676.961182 453.439362,670.026062 450.272461,662.132446 
	C447.306946,654.740845 442.758423,648.897827 437.163147,643.571167 
	C431.057251,637.758423 423.405731,636.288696 415.649323,639.766785 
	C413.929443,640.538025 412.809052,640.216675 411.632935,639.118164 
	C409.814423,637.419556 408.280914,635.237671 406.179047,634.057922 
	C401.922028,631.668335 401.765625,628.708313 404.311584,625.053467 
	C407.906952,626.043335 409.893982,628.897644 412.800049,630.424255 
	C405.856812,620.929565 397.678833,612.729614 387.686584,606.335876 
	C391.623016,611.255920 396.350739,615.388733 400.998383,619.609802 
	C402.574524,621.041260 404.356628,622.469482 403.703186,625.172546 
	C400.413269,627.573120 398.110443,627.093262 395.799194,624.067993 
	C393.642609,621.245239 390.933319,618.844604 388.467316,616.258179 
	C388.135071,616.551331 387.802856,616.844482 387.470612,617.137634 
	C390.313965,619.640808 390.406006,623.945190 393.847778,626.032532 
	C397.405731,628.190430 396.209198,630.584595 393.794952,632.316650 
	C391.456421,633.994385 389.739319,635.683777 390.085419,638.472473 
	C385.208649,640.411133 381.259613,639.299255 377.297699,636.501038 
	C373.648346,633.923523 370.015045,634.657898 367.216217,638.314514 
	C365.497375,640.560120 363.977356,642.972778 362.125427,645.099121 
	C353.649658,654.830383 352.986603,666.835938 352.247070,678.799011 
	C352.159576,680.214478 352.814758,681.737793 353.357269,683.120239 
	C356.970825,692.329041 356.991730,692.322815 347.224548,694.775391 
	C346.417175,694.978210 345.602966,695.162292 344.783417,695.306824 
	C338.686127,696.382446 332.750153,698.034851 327.164673,700.715515 
	C324.203705,702.136414 321.339661,704.182861 322.876190,708.027405 
	C324.780396,712.791931 327.355011,717.263550 331.000000,721.000000 
	C279.645782,721.000000 228.291550,721.000000 176.597076,720.642578 
	C179.886581,703.554932 183.062790,686.710754 187.232559,670.116211 
	C198.938782,623.528503 211.780807,577.192383 214.272995,528.836853 
	C214.855011,517.543884 216.162857,506.290039 216.940613,495.004639 
	C217.297455,489.826813 215.322266,488.278595 210.295105,489.609100 
	C207.413574,490.371765 204.725311,491.859711 201.846542,492.638794 
	C195.032715,494.482849 192.310730,498.767029 192.357605,505.800812 
	C192.488632,525.453491 191.145493,545.030579 188.298660,564.493408 
	C185.533005,583.401245 184.303101,602.536072 180.329117,621.259766 
	C176.014282,641.589417 171.355606,661.846252 166.811981,682.127014 
	C163.907364,695.091980 160.939499,708.042847 158.000000,721.000000 
M441.660248,366.016113 
	C437.052826,363.555695 432.192078,360.196259 433.669922,354.685120 
	C435.438202,348.091034 432.503967,342.426910 430.315002,337.728485 
	C427.822876,332.379364 429.069031,329.636505 431.683197,325.786316 
	C434.861755,321.104828 438.852661,316.819092 440.344055,310.656067 
	C437.867493,311.663605 436.768372,313.353241 435.538208,314.904358 
	C431.083527,320.521057 426.500244,325.978394 420.724945,330.371674 
	C415.515198,334.334808 415.743011,334.987671 421.159943,338.930725 
	C423.968048,340.974792 429.321503,343.386749 427.104279,346.747650 
	C424.399475,350.847748 420.129944,346.492218 416.712524,344.920227 
	C414.595642,343.946503 413.084930,341.558472 409.842590,341.841675 
	C410.909393,344.486603 412.875732,345.508575 414.739777,346.376312 
	C418.707947,348.223480 422.163757,350.835388 425.696106,353.325775 
	C427.639618,354.696014 430.748749,356.232788 429.036285,359.035645 
	C427.431702,361.661957 424.383820,360.093536 422.241333,359.006500 
	C418.686218,357.202667 415.353638,354.963348 411.905029,352.945526 
	C408.546570,350.980469 405.295898,348.749634 400.712067,347.838165 
	C401.751190,350.115845 403.386566,350.700134 404.735504,351.488770 
	C412.207977,355.857574 419.827148,359.987274 427.159973,364.576080 
	C429.423737,365.992706 433.737122,367.803223 431.555267,371.197235 
	C429.177948,374.895416 425.867828,371.586670 423.390320,369.998505 
	C418.206268,366.675354 412.712433,364.132294 406.959290,362.106110 
	C412.458221,366.510681 418.130554,370.588165 423.644073,374.870178 
	C425.129089,376.023499 427.079956,377.733582 425.568329,379.888184 
	C424.046906,382.056763 422.091125,380.832489 420.313934,379.695709 
	C406.989471,371.172638 393.884430,362.286621 379.512085,355.513733 
	C377.062988,354.359589 374.480469,352.915710 373.980988,349.983643 
	C375.063263,347.664734 378.928986,347.640717 378.286224,345.179108 
	C376.961884,340.107452 379.596558,339.844635 383.270172,340.005402 
	C384.020691,340.038239 385.171234,339.747559 385.501221,339.213165 
	C388.986023,333.569702 394.873260,329.916595 397.613434,323.540100 
	C402.553986,312.043060 407.173828,300.474762 410.140503,288.293243 
	C410.423553,287.131073 410.883942,286.007538 409.448914,285.308777 
	C408.211823,285.168396 407.610107,285.986908 407.054199,286.825867 
	C396.583069,302.628204 383.899200,316.464233 369.653076,328.909637 
	C367.323059,330.945160 367.178528,332.943695 369.263428,335.329956 
	C371.011414,337.330627 372.485596,339.573822 374.041046,341.738373 
	C375.203247,343.355774 375.287781,345.533875 373.281006,345.794373 
	C365.790283,346.766663 359.658417,351.802551 351.865021,352.113678 
	C341.080231,352.544159 330.233459,352.908417 319.616638,355.338684 
	C316.453400,356.062744 314.960419,357.411957 316.037079,360.944794 
	C316.882111,363.717651 316.756104,366.703369 314.564484,368.943665 
	C308.841797,374.793121 302.158325,378.716248 293.633972,377.201416 
	C286.966278,376.016510 282.021606,371.685486 279.175110,365.884644 
	C276.890839,361.229523 280.833466,357.448395 283.355072,353.791199 
	C289.691742,344.600830 296.304626,335.573425 300.561401,325.148071 
	C301.327332,323.272186 303.042236,321.497742 301.894928,318.910828 
	C299.679718,318.528412 298.635834,320.240021 297.479767,321.491394 
	C293.296844,326.019226 289.086914,330.529999 285.089691,335.219818 
	C276.715179,345.045349 266.411011,352.101562 254.571152,357.057678 
	C252.782684,357.806335 251.129501,358.120819 249.374069,356.924530 
	C248.335480,356.216797 247.192520,355.181671 245.746536,356.475800 
	C245.066299,358.702179 246.754456,360.199707 247.674591,361.848694 
	C250.199448,366.373566 252.355347,371.065125 254.038116,375.942688 
	C254.738571,377.972961 254.879990,380.396118 252.503296,381.712677 
	C250.286896,382.940460 248.586655,381.461060 247.270264,379.985870 
	C245.282730,377.758545 243.629776,375.236450 241.720932,372.933899 
	C240.322144,371.246582 239.155838,368.300781 236.282150,370.122009 
	C233.562912,371.845337 234.518677,374.418335 235.820663,376.760956 
	C237.760529,380.251251 239.747284,383.719574 241.549713,387.280426 
	C242.454681,389.068237 242.232101,390.861481 240.434128,392.160156 
	C238.580841,393.498901 237.044220,392.768951 235.484528,391.512939 
	C232.429733,389.053009 230.315735,385.844543 228.433929,382.514191 
	C222.325760,371.704163 223.727829,368.630981 230.735809,363.002045 
	C231.376404,362.487549 232.013351,361.860352 232.393600,361.147583 
	C234.674408,356.872467 230.707962,355.711578 228.523682,353.808441 
	C226.417267,351.973114 223.972778,351.934509 222.696518,354.654907 
	C221.168335,357.912262 220.550583,361.564697 215.867676,362.047150 
	C214.591141,362.178680 214.788788,364.197571 214.932281,365.575195 
	C216.044876,376.256226 219.327026,385.869598 226.936508,393.935791 
	C233.293167,400.673950 241.321869,404.646301 249.202133,408.917145 
	C252.176987,410.529449 255.545609,412.796234 259.047333,410.962799 
	C262.203430,409.310364 260.363434,405.830658 260.695190,403.158356 
	C260.891846,401.574249 261.370300,400.131012 262.865753,399.475250 
	C264.886139,398.589294 266.056946,400.231659 266.931122,401.519989 
	C268.983246,404.544281 271.025543,407.625702 272.609680,410.907135 
	C276.645294,419.266663 281.959717,426.590515 288.786560,432.903748 
	C305.216736,448.097839 324.811859,458.573273 343.733978,470.062836 
	C346.199371,471.559845 348.088409,471.025452 349.810730,468.873535 
	C357.510773,459.253021 367.255157,452.930939 378.995850,448.878448 
	C391.253204,444.647583 403.074951,439.148193 415.396484,435.000336 
	C427.632324,430.881287 440.306335,428.991547 453.092377,427.951202 
	C458.333008,427.524780 463.613312,428.682617 467.056122,433.163849 
	C470.112732,437.142365 474.057343,441.154358 470.700104,447.019806 
	C470.003967,448.236084 470.486053,449.663605 471.654327,450.608704 
	C472.705658,451.459229 473.985443,451.389648 474.910828,450.616150 
	C481.893677,444.779694 489.932983,439.989441 494.081970,431.320618 
	C498.281219,422.546814 500.972504,413.287506 502.780426,403.780518 
	C505.733795,388.250397 508.181366,372.606598 514.564880,357.957062 
	C515.325378,356.211670 516.880981,353.915253 514.739075,352.513824 
	C512.169373,350.832397 510.935150,353.705658 509.662964,355.200378 
	C506.549530,358.858459 503.180725,362.015259 498.096619,362.269257 
	C489.604797,362.693512 481.130859,361.832489 474.381500,356.349670 
	C466.885193,350.260101 458.684784,352.461792 450.532928,352.749237 
	C449.879730,352.772308 449.239960,353.174866 448.339844,353.490082 
	C452.469635,357.608978 456.757996,358.570374 460.767731,360.003571 
	C464.655243,361.393036 464.892181,364.187042 464.341400,367.644867 
	C463.760193,371.293732 461.332123,371.522278 458.447174,371.362549 
	C452.646271,371.041351 447.506927,368.646973 441.660248,366.016113 
M425.619568,482.077515 
	C436.055481,477.101501 444.867554,469.557648 454.702942,463.623840 
	C456.935852,462.276703 459.609131,460.014648 458.458984,457.192932 
	C456.970734,453.541534 457.849884,450.031738 457.595703,446.468781 
	C457.034302,438.601013 454.520782,436.554321 446.685242,437.713043 
	C439.612366,438.758942 432.426758,439.020721 425.464203,440.841492 
	C409.790131,444.940491 394.896973,451.155243 379.914124,457.202301 
	C372.511902,460.189850 365.846344,463.956329 360.285614,469.622711 
	C356.401794,473.580322 356.601013,475.715149 361.434052,478.615723 
	C364.843658,480.662018 368.683258,481.982391 372.143097,483.956055 
	C390.089142,494.193115 407.660919,493.473419 425.619568,482.077515 
M179.674881,557.413513 
	C182.058975,540.930420 182.906555,524.320312 183.610855,507.708130 
	C183.876770,501.435944 182.016388,500.281860 176.033691,502.495972 
	C171.198105,504.285583 166.381821,506.142975 161.637619,508.160004 
	C155.653259,510.704224 154.642685,512.487488 155.600189,518.951904 
	C157.280121,530.294067 158.772736,541.678406 160.932022,552.932190 
	C165.585724,577.186462 168.917801,601.497314 166.596817,626.278259 
	C166.436462,627.990479 166.402603,629.896118 168.537781,631.950378 
	C174.313614,607.326233 176.109497,582.680237 179.674881,557.413513 
M337.821655,485.724640 
	C321.949890,475.648254 308.671417,462.501648 295.048492,449.747223 
	C292.738617,447.584656 290.411011,443.633820 286.846344,445.278687 
	C283.442322,446.849426 285.734039,450.998993 285.308197,453.982452 
	C284.172974,461.936035 287.724060,467.077301 294.367615,471.228424 
	C304.670044,477.665741 314.661255,484.618439 324.600189,491.614349 
	C331.639496,496.569214 339.239990,500.084381 347.445374,502.593414 
	C360.331177,506.533600 372.440704,511.895386 381.183899,522.830872 
	C382.479675,524.451599 384.106567,525.860718 386.276184,524.142090 
	C392.424469,519.271729 397.446381,512.972656 405.112061,509.794617 
	C398.524384,510.107666 392.347534,511.041260 386.022156,509.726685 
	C368.069427,505.995575 353.512726,495.547089 337.821655,485.724640 
M495.429108,146.872299 
	C508.044678,140.810852 518.944946,130.789398 534.441711,131.379410 
	C534.335266,130.863007 534.228821,130.346603 534.122375,129.830200 
	C525.680237,125.288567 517.238098,120.746941 508.495605,116.043762 
	C508.777374,119.002632 511.895935,121.081299 509.300720,123.513321 
	C506.899323,125.763672 504.141968,126.865677 500.634796,125.635223 
	C496.723633,124.263031 492.665863,123.285576 488.634155,122.288818 
	C486.190735,121.684738 483.910217,119.744522 481.085663,120.996605 
	C480.468658,124.200783 483.198303,125.442902 484.474976,127.405937 
	C487.678802,132.332077 486.290314,136.098083 480.625580,137.383514 
	C479.492432,137.640671 478.343506,137.889740 477.189117,137.980530 
	C473.344086,138.282959 473.082001,140.047791 475.044830,142.890045 
	C480.788513,151.207062 485.499451,152.336395 494.350250,147.472458 
	C494.496033,147.392334 494.641541,147.311783 495.429108,146.872299 
M242.122635,146.097427 
	C233.002579,143.291473 226.071106,146.125671 220.458466,153.762207 
	C216.666733,158.921234 216.914398,169.096695 221.618118,173.440750 
	C223.147705,174.853348 224.871918,175.032318 226.714798,174.358124 
	C229.281174,173.419235 231.587555,171.936539 232.896393,169.537476 
	C234.969604,165.737320 238.169724,163.691132 242.182312,162.586533 
	C245.918274,161.558105 249.252579,159.870255 249.362823,155.431503 
	C249.473999,150.955795 247.107391,147.910141 242.122635,146.097427 
M361.270966,295.124420 
	C359.707306,294.172394 359.756805,294.212219 357.780823,296.668091 
	C346.791168,310.326935 334.849335,322.937408 319.427277,331.779022 
	C317.848419,332.684204 315.687286,333.333069 315.268646,336.292023 
	C320.468018,337.277924 325.479126,335.288940 330.487396,335.669159 
	C336.663818,336.138123 340.856812,333.253265 344.191742,328.332581 
	C351.125824,318.101288 355.918121,306.785706 361.270966,295.124420 
M518.417603,380.811462 
	C516.674011,385.616089 514.090576,390.282715 515.597107,396.023804 
	C528.829468,384.071655 542.938049,351.720306 537.921753,340.999512 
	C527.991760,352.834137 524.729126,367.185394 518.417603,380.811462 
M450.227234,146.458832 
	C445.419220,151.865829 448.900574,163.787323 455.847687,165.792694 
	C457.503845,166.270798 458.422577,165.598495 458.833862,164.100449 
	C459.958008,160.005997 463.265594,159.309082 466.799805,158.508698 
	C469.769196,157.836243 473.143768,158.681488 475.764313,156.486664 
	C474.523926,153.607162 474.408356,153.714722 473.165314,152.379059 
	C467.037292,145.794525 459.136230,145.750076 450.227234,146.458832 
M373.212708,569.932190 
	C371.521423,574.987061 373.087555,581.041077 376.803772,583.813538 
	C380.235291,586.373596 386.891266,586.149231 390.871307,583.167664 
	C393.880066,580.913757 395.679108,578.049194 394.019958,574.141052 
	C390.714264,566.354492 380.243896,563.893860 373.212708,569.932190 
M432.773468,580.412842 
	C434.671692,580.676758 436.252808,579.850708 436.862640,578.222534 
	C439.207794,571.961121 440.839294,565.475647 439.529816,558.777222 
	C438.731445,554.692993 436.045837,553.904846 432.459808,556.119568 
	C425.531982,560.398132 425.316559,574.514221 432.773468,580.412842 
M233.267853,347.111603 
	C235.949326,348.038177 237.448532,351.390656 240.622833,351.095581 
	C241.354355,350.219971 241.358093,349.530853 240.900345,349.005829 
	C236.639893,344.118866 232.009949,339.607849 226.893997,335.619537 
	C225.833847,334.793030 224.562668,334.517059 223.131714,334.778107 
	C218.144760,335.687927 212.964294,344.596191 214.430908,350.050507 
	C216.262039,350.024841 216.719284,348.425262 217.574478,347.300201 
	C221.067490,342.704712 223.345825,342.154297 228.666855,344.668549 
	C230.015350,345.305725 231.314758,346.046783 233.267853,347.111603 
M308.015472,360.722412 
	C304.384949,355.552368 299.344879,356.281250 294.198792,357.406311 
	C291.335846,358.032227 288.291138,358.825958 288.505585,362.446472 
	C288.711914,365.930939 291.100067,368.101593 294.539825,368.788116 
	C300.512085,369.980225 305.507385,367.181946 308.015472,360.722412 
M498.291046,354.021729 
	C500.210602,352.840179 501.695251,351.124146 499.676331,349.262115 
	C497.277802,347.049927 494.504456,344.976715 491.122223,344.480896 
	C487.854462,344.001862 482.905212,347.350311 483.171844,349.878448 
	C483.606812,354.003113 486.944794,354.484253 490.203430,354.527893 
	C492.672760,354.560944 495.176697,355.178986 498.291046,354.021729 
M442.419708,332.938965 
	C445.912689,323.211243 452.028870,314.511353 453.672668,304.024567 
	C448.566864,314.549377 441.541992,323.881561 434.734131,333.632660 
	C438.842499,334.733887 438.842499,334.733887 442.419708,332.938965 
M396.033691,166.184387 
	C395.110352,171.820251 399.834900,176.135132 408.009247,175.800415 
	C403.919891,171.777817 402.365784,166.537537 396.033691,166.184387 
M508.194672,346.829376 
	C512.419861,346.583771 512.005493,343.444031 512.428650,340.385345 
	C510.095459,340.030151 507.987427,339.952515 506.639435,341.576233 
	C505.176971,343.337769 506.815216,344.932068 508.194672,346.829376 
M504.674500,321.907410 
	C501.601105,324.258942 498.333771,326.425507 495.956390,330.991455 
	C501.426514,329.516418 503.133270,325.838165 504.674500,321.907410 
M469.432098,506.180847 
	C471.291504,506.920715 471.180267,510.169678 474.886139,509.883057 
	C472.760651,505.836029 469.817993,503.867950 466.124817,501.426636 
	C466.115936,504.592377 467.974731,504.767822 469.432098,506.180847 
M508.562592,533.435669 
	C509.071564,534.088074 508.889496,535.561829 510.711456,534.950806 
	C509.580078,530.957703 506.640594,528.601013 503.171478,525.577576 
	C503.779510,529.548157 507.309937,530.269043 508.562592,533.435669 
M416.845795,169.074524 
	C416.105804,168.488861 415.479279,167.489441 414.019836,168.591278 
	C414.681000,171.164642 416.119324,172.954483 418.927460,173.914841 
	C419.231323,171.790634 417.947540,170.769745 416.845795,169.074524 
M467.574371,517.250427 
	C468.235352,517.495117 468.826660,518.404602 469.689697,517.421021 
	C468.989655,515.672058 468.525055,513.743591 466.132080,513.370544 
	C464.933868,515.057678 465.827881,516.064758 467.574371,517.250427 
M496.651367,508.842896 
	C496.963745,508.882080 497.277527,508.954895 497.587708,508.941956 
	C497.694000,508.937500 497.904419,508.659058 497.876556,508.605896 
	C496.550049,506.077576 494.658752,504.192963 491.672516,503.528076 
	C493.187653,505.193085 494.702789,506.858063 496.651367,508.842896 
z"/>
<path fill="#0a0a0a" opacity="1.000000" stroke="none" 
	d="
M590.860474,465.203491 
	C586.177734,460.891571 581.738586,456.827576 576.302307,454.129089 
	C571.566956,451.778564 566.764954,450.123352 561.617859,453.285156 
	C559.706604,454.459259 557.460938,455.140808 555.976135,452.560852 
	C554.608398,450.184296 555.997375,448.525696 557.695251,446.937775 
	C563.787903,441.239685 570.744568,442.058441 577.851868,444.228149 
	C583.951477,446.090240 589.272888,449.644501 594.987305,452.346802 
	C611.069702,459.951965 627.805847,461.802063 645.011780,457.649658 
	C649.419617,456.585907 651.899780,457.403473 653.939331,461.525146 
	C650.213135,464.791321 645.931580,467.486267 641.116333,468.544647 
	C628.768494,471.258789 616.341614,473.821167 603.560181,471.440155 
	C598.849854,470.562683 594.708191,468.611450 590.860474,465.203491 
z"/>
<path fill="#0a0a0a" opacity="1.000000" stroke="none" 
	d="
M640.508362,401.475830 
	C642.248230,400.762573 643.644043,400.213898 644.997070,399.574615 
	C652.155762,396.192291 653.550720,396.562988 658.889587,403.766632 
	C647.311646,408.987000 635.862061,414.170624 624.392334,419.309509 
	C620.401306,421.097656 616.079834,421.516846 611.834351,422.353485 
	C600.974060,424.493744 591.424438,420.803711 582.143982,416.081238 
	C573.661804,411.764984 566.117249,413.120178 558.965881,418.862396 
	C557.797852,419.800232 556.603760,420.708252 555.388306,421.583679 
	C554.443909,422.263855 553.466248,422.940979 552.193970,422.485565 
	C551.301331,418.471222 554.792114,412.487549 559.532837,409.870850 
	C564.059143,407.372498 568.881653,406.614899 574.010620,407.124329 
	C580.298828,407.748932 586.666077,407.793396 592.894653,408.761169 
	C609.447815,411.333038 624.958984,407.697021 640.508362,401.475830 
z"/>
<path fill="#0a0a0a" opacity="1.000000" stroke="none" 
	d="
M397.466187,636.101196 
	C398.452881,632.110596 398.787872,632.036011 402.932526,634.851440 
	C401.247986,636.067200 400.076416,638.166748 397.466187,636.101196 
z"/>
<path fill="#0a0a0a" opacity="1.000000" stroke="none" 
	d="
M400.701996,379.323730 
	C396.287140,376.456757 392.769958,372.697540 387.178833,371.953308 
	C387.350677,374.599243 389.426025,375.204193 390.985016,376.139709 
	C393.266479,377.508759 395.716553,378.602051 397.966309,380.017120 
	C399.835205,381.192688 399.720154,383.167450 399.132080,384.964478 
	C398.508789,386.869293 396.682861,386.752899 395.337219,386.276733 
	C386.498535,383.148834 378.277069,378.813965 370.789276,373.145782 
	C368.927368,371.736298 369.248962,369.186005 368.135071,367.466888 
	C366.512604,366.838562 365.485565,367.836731 364.369659,368.512756 
	C354.367157,374.572021 343.735840,379.358246 333.005859,383.932922 
	C331.084961,384.751862 328.931854,386.111267 327.010101,384.029358 
	C325.131104,381.993805 326.643860,379.881409 327.427399,377.996460 
	C329.188507,373.759888 332.789917,371.210449 336.673401,369.225800 
	C345.875092,364.523376 355.062103,359.807495 363.572998,353.909607 
	C366.986542,351.544067 370.148193,351.508453 372.820404,354.800201 
	C376.112885,358.855896 380.700989,360.761658 385.178436,362.979797 
	C392.760468,366.735931 400.315887,370.589050 405.764465,377.353027 
	C404.633240,379.697968 402.990173,379.970612 400.701996,379.323730 
z"/>
</g></svg>